<?xml version="1.0" encoding="utf-8"?>
<svg width="408px" height="52px" viewBox="0 0 408 52" version="1.1" xmlns:xlink="http://www.w3.org/1999/xlink" xmlns="http://www.w3.org/2000/svg">
  <g fill="#D3D3D3" stroke="none" id="GAMERTUBE">
    <path d="M43.7812 43.2125Q40.5156 46.1031 36.0625 47.5094Q31.6094 48.9156 26.9375 48.9156Q21.8281 48.9156 17.4375 47.1969Q13.0625 45.4625 9.89062 42.4156Q6.71875 39.3688 4.92188 35.1813Q3.14062 30.9938 3.14062 25.9938Q3.14062 21.0094 4.92188 16.8219Q6.71875 12.6188 9.92188 9.5875Q13.125 6.54063 17.5 4.82188Q21.8906 3.0875 27.0781 3.0875Q32.3906 3.0875 36.7656 4.79063Q41.1562 6.47813 44.2188 9.93125L40.3906 13.775Q37.5625 11.025 34.3594 9.80625Q31.1719 8.5875 27.3281 8.5875Q23.4219 8.5875 20.0938 9.9Q16.7656 11.2125 14.3594 13.525Q11.9688 15.8219 10.625 19.025Q9.28125 22.2281 9.28125 25.9938Q9.28125 29.7125 10.625 32.9156Q11.9688 36.1188 14.3594 38.4625Q16.7656 40.7906 20.0625 42.1031Q23.3594 43.4156 27.2656 43.4156Q30.1406 43.4156 32.8281 42.7438Q35.5156 42.0563 37.9531 40.4625L37.9531 25.8063L43.7812 25.8063L43.7812 43.2125ZM158.091 3.3375L189.513 3.3375L189.513 8.65L158.091 8.65L158.091 3.3375ZM405.369 3.3375L373.947 3.3375L373.947 8.65L405.369 8.65L405.369 3.3375ZM53.6735 48.4L47.3454 48.4L67.6892 3.60313L73.7829 3.60313L94.1267 48.4L87.7204 48.4L70.7048 9.86875L53.6735 48.4ZM98.9716 48.4L104.862 48.4L104.862 15.4469L121.253 42.9625L124.065 42.9625L140.518 15.1813L140.581 48.4L146.456 48.4L146.393 3.60313L141.347 3.60313L122.784 35.3375L103.972 3.60313L98.9716 3.60313L98.9716 48.4ZM219.268 34.5719L228.987 48.4L235.706 48.4L225.018 33.2906Q229.753 31.6344 232.346 28.025Q234.94 24.4 234.94 19.2125Q234.94 15.5719 233.659 12.6656Q232.378 9.74375 229.971 7.72813Q227.581 5.7125 224.128 4.66563Q220.675 3.60313 216.315 3.60313L198.971 3.60313L198.971 8.91563L216.128 8.91563Q222.393 8.91563 225.596 11.6031Q228.8 14.2906 228.8 19.2125Q228.8 24.0875 225.596 26.775Q222.393 29.4625 216.128 29.4625L198.971 29.4625L198.971 48.4L205.05 48.4L205.05 34.6969L216.315 34.6969Q217.081 34.6969 217.815 34.6656Q218.565 34.6344 219.268 34.5719ZM252.279 48.4L252.279 8.91563L236.842 8.91563L236.842 3.60313L273.779 3.60313L273.779 8.91563L258.357 8.91563L258.357 48.4L252.279 48.4ZM289.407 47.6344Q292.891 48.9156 297.313 48.9156Q306.141 48.9156 311.157 43.8688Q316.188 38.8063 316.188 29.0719L316.188 3.60313L310.235 3.60313L310.235 28.8844Q310.235 36.3688 306.875 39.9Q303.516 43.4156 297.375 43.4156Q291.172 43.4156 287.875 39.9313Q284.578 36.4313 284.578 28.8844L284.578 3.60313L278.5 3.60313L278.5 29.0719Q278.5 33.9313 279.782 37.65Q281.063 41.3531 283.485 43.8531Q285.922 46.3531 289.407 47.6344ZM327.499 3.60313L347.468 3.60313Q355.218 3.60313 359.343 6.68125Q363.468 9.74375 363.468 15.1813Q363.468 18.8375 361.734 21.3688Q360.015 23.8844 357.265 25.1656Q361.171 26.2594 363.468 29.0406Q365.78 31.8219 365.78 36.3063Q365.78 42.1344 361.515 45.275Q357.265 48.4 348.749 48.4L327.499 48.4L327.499 43.4156L348.499 43.4156Q353.937 43.4156 356.78 41.6188Q359.624 39.8219 359.624 35.7906Q359.624 31.8219 356.78 30.0094Q353.937 28.1813 348.499 28.1813L327.499 28.1813L327.499 23.1813L346.89 23.1813Q351.89 23.1813 354.609 21.3688Q357.327 19.5406 357.327 15.8844Q357.327 12.2438 354.609 10.4156Q351.89 8.5875 346.89 8.5875L327.499 8.5875L327.499 3.60313ZM158.091 23.0563L189.513 23.0563L189.513 28.2438L158.091 28.2438L158.091 23.0563ZM405.369 23.0563L373.947 23.0563L373.947 28.2438L405.369 28.2438L405.369 23.0563ZM158.091 48.4L189.513 48.4L189.513 43.0875L158.091 43.0875L158.091 48.4ZM405.369 48.4L373.947 48.4L373.947 43.0875L405.369 43.0875L405.369 48.4Z" />
  </g>
</svg>