<svg width="38" height="24" viewBox="0 0 38 24" fill="none" xmlns="http://www.w3.org/2000/svg">
<path d="M28.7449 12.9563C29.3137 12.9563 29.7748 12.4952 29.7748 11.9264C29.7748 11.3576 29.3137 10.8965 28.7449 10.8965C28.1761 10.8965 27.715 11.3576 27.715 11.9264C27.715 12.4952 28.1761 12.9563 28.7449 12.9563Z" fill="white"/>
<path d="M26.6851 10.8141C27.2539 10.8141 27.715 10.353 27.715 9.7842C27.715 9.2154 27.2539 8.75429 26.6851 8.75429C26.1163 8.75429 25.6552 9.2154 25.6552 9.7842C25.6552 10.353 26.1163 10.8141 26.6851 10.8141Z" fill="white"/>
<path d="M28.7449 8.75429C29.3137 8.75429 29.7748 8.29318 29.7748 7.72437C29.7748 7.15557 29.3137 6.69446 28.7449 6.69446C28.1761 6.69446 27.715 7.15557 27.715 7.72437C27.715 8.29318 28.1761 8.75429 28.7449 8.75429Z" fill="white"/>
<path d="M30.8974 10.8141C31.4662 10.8141 31.9273 10.353 31.9273 9.7842C31.9273 9.2154 31.4662 8.75429 30.8974 8.75429C30.3286 8.75429 29.8675 9.2154 29.8675 9.7842C29.8675 10.353 30.3286 10.8141 30.8974 10.8141Z" fill="white"/>
<path d="M25.0393 0H12.0376C5.40087 0 0 5.40087 0 12.0376V18.7033C0 21.5438 2.31113 23.8528 5.14957 23.8528C7.8397 23.8528 10.3259 22.5984 11.8007 20.4953C13.3394 18.3036 15.8565 16.9936 18.5384 16.9936C21.2203 16.9936 23.7374 18.3036 25.2761 20.4953C26.751 22.5984 29.2372 23.8528 31.9273 23.8528C34.7658 23.8528 37.0769 21.5438 37.0769 18.7033V12.0376C37.0769 5.40087 31.676 0 25.0393 0ZM35.0171 18.7033C35.0171 20.4067 33.6308 21.793 31.9273 21.793C29.9087 21.793 28.0507 20.8661 26.9611 19.313C25.0393 16.5713 21.8898 14.9338 18.5384 14.9338C15.1871 14.9338 12.0376 16.5713 10.1158 19.313C9.02616 20.8661 7.1682 21.793 5.14957 21.793C3.44609 21.793 2.05983 20.4067 2.05983 18.7033V12.0376C2.05983 6.53584 6.53583 2.05983 12.0376 2.05983H25.0413C30.5411 2.05983 35.0171 6.53584 35.0171 12.0376V18.7033Z" fill="white"/>
<path d="M11.3702 8.79548H10.2991V7.72437C10.2991 7.15586 9.83773 6.69446 9.26921 6.69446C8.7007 6.69446 8.2393 7.15586 8.2393 7.72437V8.79548H7.16819C6.59968 8.79548 6.13828 9.25688 6.13828 9.8254C6.13828 10.3939 6.59968 10.8553 7.16819 10.8553H8.2393V11.9264C8.2393 12.4949 8.7007 12.9563 9.26921 12.9563C9.83773 12.9563 10.2991 12.4949 10.2991 11.9264V10.8553H11.3702C11.9388 10.8553 12.4002 10.3939 12.4002 9.8254C12.4002 9.25688 11.9388 8.79548 11.3702 8.79548Z" fill="white"/>
<path d="M20.9526 10.8965H16.1243C15.5558 10.8965 15.0944 11.3579 15.0944 11.9264C15.0944 12.4949 15.5558 12.9563 16.1243 12.9563H20.9526C21.5211 12.9563 21.9825 12.4949 21.9825 11.9264C21.9825 11.3579 21.5211 10.8965 20.9526 10.8965Z" fill="white"/>
<path d="M20.9526 4.82822H16.1243C15.5558 4.82822 15.0944 5.28962 15.0944 5.85813C15.0944 6.42664 15.5558 6.88804 16.1243 6.88804H20.9526C21.5211 6.88804 21.9825 6.42664 21.9825 5.85813C21.9825 5.28962 21.5211 4.82822 20.9526 4.82822Z" fill="white"/>
</svg>
