<svg width="167" height="24" viewBox="0 0 167 19" fill="none" xmlns="http://www.w3.org/2000/svg">
<path d="M64.6793 0.224396H76.8143V1.53916H64.6793V0.224396ZM167 0.224396H154.865V1.53916H167V0.224396ZM16.1073 16.3792C15.2811 17.1508 14.2997 17.7254 13.1632 18.1028C12.0308 18.4803 10.8461 18.669 9.60886 18.669C8.25424 18.669 6.99608 18.4383 5.83438 17.977C4.67688 17.5115 3.67664 16.8761 2.83367 16.0709C1.99069 15.2615 1.33226 14.2948 0.858349 13.1709C0.388635 12.0469 0.153778 10.8307 0.153778 9.5222C0.153778 8.20113 0.388635 6.98281 0.858349 5.86724C1.33226 4.75167 1.99489 3.79127 2.84625 2.98605C3.6976 2.17663 4.70203 1.53917 5.85955 1.07366C7.02124 0.608132 8.2815 0.37537 9.64032 0.37537C10.9614 0.37537 12.1797 0.582966 13.2953 0.99816C14.4109 1.40916 15.3733 2.03615 16.1827 2.87912L15.2517 3.85419C14.48 3.08252 13.6308 2.53312 12.7039 2.20599C11.7771 1.87888 10.7727 1.71532 9.69065 1.71532C8.53733 1.71532 7.46579 1.91453 6.47605 2.31295C5.49048 2.70717 4.64122 3.25237 3.92826 3.94854C3.21531 4.64472 2.65753 5.46882 2.25491 6.42083C1.8523 7.37284 1.651 8.40663 1.651 9.5222C1.651 10.642 1.8523 11.6778 2.25491 12.6298C2.65753 13.5819 3.21531 14.4059 3.92826 15.1021C4.64122 15.7983 5.48629 16.3435 6.46346 16.7377C7.44482 17.132 8.51216 17.3291 9.66548 17.3291C10.5923 17.3291 11.4793 17.2096 12.3265 16.9705C13.1778 16.7315 13.9642 16.3288 14.6855 15.7627V9.57882H16.1073V16.3792ZM20.3551 18.5432H18.7823L27.0799 0.50749H28.5518L36.8495 18.5432H35.2517L27.8033 2.10535L20.3551 18.5432ZM40.0457 18.5432H41.4863V3.47045L48.9096 16.1716H49.6266L57.0247 3.39495L57.0499 18.5432H58.4905L58.4651 0.50749H57.2573L49.2933 14.2906L41.2787 0.50749H40.0457V18.5432ZM94.3609 18.5432H96.0343L91.5489 12.2587C92.8909 11.8603 93.9268 11.1809 94.6566 10.2205C95.3862 9.26007 95.7511 8.05853 95.7511 6.61584C95.7511 5.65125 95.5834 4.79151 95.248 4.03662C94.9124 3.28173 94.4301 2.64217 93.8009 2.11793C93.1761 1.59369 92.4128 1.19527 91.5111 0.922684C90.6095 0.645888 89.5925 0.50749 88.46 0.50749H81.9177V1.82226H88.46C90.3473 1.82226 91.7838 2.23955 92.7694 3.07413C93.7591 3.90452 94.254 5.08509 94.254 6.61584C94.254 8.12564 93.7591 9.30202 92.7694 10.145C91.7838 10.9838 90.3473 11.4031 88.46 11.4031H81.9177V18.5432H83.3835V12.6928H88.46C88.7536 12.6928 89.0367 12.6844 89.3093 12.6676C89.5861 12.6508 89.8525 12.6257 90.1083 12.5921L94.3609 18.5432ZM103.943 18.5432V1.82226H97.5015V0.50749H111.882V1.82226H105.441V18.5432H103.943ZM116.867 16.7126C118.163 18.0169 119.937 18.669 122.189 18.669C124.458 18.669 126.24 18.0169 127.536 16.7126C128.832 15.4083 129.48 13.4665 129.48 10.8873V0.50749H128.014V10.8118C128.014 13.0471 127.511 14.6932 126.504 15.7501C125.498 16.8027 124.068 17.3291 122.214 17.3291C120.344 17.3291 118.905 16.8027 117.899 15.7501C116.892 14.6932 116.389 13.0471 116.389 10.8118V0.50749H114.923V10.8873C114.923 13.4665 115.571 15.4083 116.867 16.7126ZM135.488 0.50749H143.062C145.037 0.50749 146.574 0.90381 147.673 1.69645C148.772 2.48489 149.321 3.62563 149.321 5.11864C149.321 6.18388 149.051 7.0604 148.51 7.7482C147.969 8.43598 147.26 8.93295 146.384 9.23911C147.621 9.48235 148.579 9.98561 149.258 10.7489C149.938 11.5122 150.278 12.5124 150.278 13.7496C150.278 15.2971 149.722 16.484 148.611 17.3102C147.503 18.1322 145.826 18.5432 143.578 18.5432H135.488V17.2787H143.578C145.276 17.2787 146.568 16.9915 147.453 16.4169C148.338 15.8424 148.781 14.9197 148.781 13.649C148.781 12.3782 148.338 11.4556 147.453 10.881C146.568 10.3022 145.276 10.0129 143.578 10.0129H135.488V8.77987H143.012C144.538 8.77987 145.721 8.4884 146.56 7.90546C147.403 7.31832 147.824 6.4418 147.824 5.27591C147.824 4.10582 147.403 3.22931 146.56 2.64635C145.721 2.0634 144.538 1.77193 143.012 1.77193H135.488V0.50749ZM64.6793 8.72327H76.8143V10.038H64.6793V8.72327ZM167 8.72327H154.865V10.038H167V8.72327ZM64.6793 18.5432H76.8143V17.2284H64.6793V18.5432ZM167 18.5432H154.865V17.2284H167V18.5432Z" fill="white"/>
</svg>
